<?xml version="1.0" encoding="UTF-8"?>
<!DOCTYPE svg PUBLIC "-//W3C//DTD SVG 1.1//EN" "http://www.w3.org/Graphics/SVG/1.1/DTD/svg11.dtd">
<!-- Creator: CorelDRAW 2019 (64-Bit) -->
<svg xmlns="http://www.w3.org/2000/svg" xml:space="preserve" width="210mm" height="297mm" version="1.1" style="shape-rendering:geometricPrecision; text-rendering:geometricPrecision; image-rendering:optimizeQuality; fill-rule:evenodd; clip-rule:evenodd"
viewBox="0 0 21000 29700"
 xmlns:xlink="http://www.w3.org/1999/xlink"
 xmlns:xodm="http://www.corel.com/coreldraw/odm/2003">
 <defs>
  <style type="text/css">
   <![CDATA[
    .str2 {stroke:#7A7A7A;stroke-width:16.96;stroke-miterlimit:4}
    .str4 {stroke:black;stroke-width:20;stroke-miterlimit:22.9256}
    .str5 {stroke:black;stroke-width:20;stroke-miterlimit:22.9256}
    .str0 {stroke:#3E4095;stroke-width:20;stroke-miterlimit:22.9256}
    .str3 {stroke:#FFF212;stroke-width:20;stroke-miterlimit:22.9256}
    .str1 {stroke:white;stroke-width:20;stroke-miterlimit:22.9256}
    .str6 {stroke:#3E4095;stroke-width:7.62;stroke-miterlimit:22.9256}
    .fil8 {fill:none}
    .fil5 {fill:none;fill-rule:nonzero}
    .fil0 {fill:#3E4095}
    .fil9 {fill:#FFF212}
    .fil4 {fill:yellow}
    .fil1 {fill:white}
    .fil3 {fill:#3E4095;fill-rule:nonzero}
    .fil7 {fill:#FFF212;fill-rule:nonzero}
    .fil6 {fill:yellow;fill-rule:nonzero}
    .fil2 {fill:white;fill-rule:nonzero}
    .fil10 {fill:white;fill-rule:nonzero}
   ]]>
  </style>
   <clipPath id="id0">
    <rect x="-29083.45" y="34505" width="40643.52" height="22861.98"/>
   </clipPath>
   <clipPath id="id1">
    <rect x="23639.22" y="25080.91" width="6265.34" height="1075.26"/>
   </clipPath>
   <clipPath id="id2">
    <rect x="30823.97" y="30772.48" width="6265.34" height="1075.26"/>
   </clipPath>
 </defs>
 <g id="Capa_x0020_1">
  <metadata id="CorelCorpID_0Corel-Layer"/>
  <g id="_2245025904208">
   <circle class="fil0 str0" cx="41005.98" cy="-10620.3" r="2950.42"/>
   <path class="fil1" d="M40564.97 -8904.5c218.61,-0.15 437.22,-0.3 655.83,-0.45 0,-562.51 0,-1125.02 0,-1687.53 171.16,0 342.33,0 513.49,0 19.03,-219.37 38.07,-438.74 57.1,-658.11 -176.94,0 -353.89,0 -530.83,0 0,-111.9 0,-223.79 0,-335.69 8.36,-43.85 35.73,-89.53 95.91,-95.92 145.45,0 290.91,0 436.36,0 -2.1,-191.03 -4.21,-382.06 -6.31,-573.09 -209.84,0 -419.68,0 -629.51,0 -489.61,40.44 -579.64,422.72 -596.2,672.63 1.39,110.99 2.79,221.98 4.19,332.98 -112.68,-0.29 -225.35,-0.59 -338.03,-0.88 0,219.49 0,438.99 0,658.48 112.81,0 225.62,0 338.43,0 -0.14,562.53 -0.29,1125.05 -0.43,1687.58z"/>
  </g>
  <g id="_2245025901360">
   <circle class="fil0 str0" cx="-4217.94" cy="19818.07" r="987.65"/>
   <path class="fil1" d="M-4482.18 19182.59l530.74 0c204.78,0 372.33,167.54 372.33,372.33l0 530.73c0,204.79 -167.55,372.33 -372.33,372.33l-530.74 0c-204.78,0 -372.33,-167.54 -372.33,-372.33l0 -530.73c0,-204.79 167.55,-372.33 372.33,-372.33zm-15.1 104.07l560.94 0c139.24,0 253.16,113.92 253.16,253.16l0 560.93c0,139.24 -113.92,253.16 -253.16,253.16l-560.94 0c-139.24,0 -253.16,-113.92 -253.16,-253.16l0 -560.93c0,-139.24 113.92,-253.16 253.16,-253.16z"/>
   <path class="fil1" d="M-4217.94 19492.58c179.76,0 325.49,145.73 325.49,325.49 0,179.76 -145.73,325.49 -325.49,325.49 -179.76,0 -325.49,-145.73 -325.49,-325.49 0,-179.76 145.73,-325.49 325.49,-325.49zm0 105.64c121.42,0 219.85,98.43 219.85,219.85 0,121.42 -98.43,219.85 -219.85,219.85 -121.42,0 -219.85,-98.43 -219.85,-219.85 0,-121.42 98.43,-219.85 219.85,-219.85z"/>
   <circle class="fil1" cx="-3874.17" cy="19471.55" r="78.61"/>
  </g>
  <g id="_2245025901936">
   <circle class="fil0" cx="4829.8" cy="-5252.62" r="987.65"/>
   <path class="fil1 str0" d="M4454.43 -4823.37l177.79 -56.89c74.56,49.09 160.91,76.3 253.8,79.47 258.53,0 468.11,-208.26 468.11,-465.17 0,-256.9 -209.58,-465.17 -468.11,-465.17 -257.26,-0.09 -465.78,208.09 -464.51,464.9 5.69,105.66 36.16,199.81 86.79,268 4.54,8.14 -46.83,153.38 -53.87,174.86zm-37.7 -157.17l-101.74 289.78 307.26 -95.57c78.75,42.91 169.14,67.34 265.3,67.34 305.18,0 552.59,-245.85 552.59,-549.13 0,-303.27 -247.41,-549.12 -552.59,-549.12 -305.2,0 -552.61,245.85 -552.61,549.12 0,103.28 28.72,199.9 78.61,282.41 1.05,1.73 2.11,3.45 3.18,5.17z"/>
   <path class="fil1" d="M4760.35 -5299.65c-15.05,-25.99 50.47,-51.15 43.74,-76.39 -12.14,-45.52 -35.81,-94.48 -58.68,-136.17 -4.63,-8.44 -19.39,-7.2 -30.9,-7.69 -11.52,-0.49 -24.49,-2.08 -32.76,5.47 -32.74,29.92 -59.81,67.56 -64.77,118.46 -4.96,50.91 30.15,118.37 102.96,209.24 72.81,90.88 226.27,176.76 310.55,178.16 84.27,1.41 106.49,-33.72 123.73,-56.09 17.23,-22.37 26.85,-64.4 10.51,-76.67 -30.19,-22.69 -106.6,-66.13 -128.98,-62.27 -32.07,5.52 -45.48,68.67 -72.79,70.85 -27.31,2.18 -152.53,-80.42 -202.61,-166.9z"/>
  </g>
  <path class="fil2" d="M35104.43 9004.33c0,-556.74 -430.13,-1013.84 -986.87,-1013.84 -532.95,0 -988.43,457.1 -988.43,1013.84 0,455.48 354.28,861.88 784.42,963.14 107.47,15.42 188.65,19.48 305.27,0 506.04,-50.63 885.61,-457.1 885.61,-963.14z"/>
  <path class="fil3" d="M17807.77 -5132.14c0,-556.74 -430.13,-1013.84 -986.87,-1013.84 -532.95,0 -988.43,457.1 -988.43,1013.84 0,455.48 354.28,861.88 784.42,963.14l0 -684.84 -177.11 0 0 -278.3 177.11 0c0,-262.17 -23.49,-607.31 355.83,-607.31l253.09 0 0 303.65 -202.46 0c-50.63,0 -101.19,50.57 -101.19,101.2l0 202.46 303.65 0 0 278.3 -303.65 0 0 684.84c506.04,-50.63 885.61,-457.1 885.61,-963.14z"/>
  <rect class="fil2" x="35823.61" y="8312.67" width="1975.31" height="974.38"/>
  <path class="fil3" d="M37299.21 8312.67l-299.8 0c-49.99,0 -99.92,49.99 -99.92,99.92 0,49.99 49.93,99.98 99.92,99.98l299.8 0c149.91,0 299.81,124.88 299.81,299.8 0,149.91 -149.9,274.79 -299.81,274.79l-299.8 0c-49.99,0 -99.92,49.98 -99.92,99.97 0,49.93 49.93,99.92 99.92,99.92l299.8 0c274.84,0 499.7,-224.86 499.7,-474.68 0,-274.84 -224.86,-499.7 -499.7,-499.7zm-875.99 499.7c0,49.93 49.93,74.95 99.92,74.95l576.18 0c49.99,0 99.98,-25.02 99.98,-74.95 0,-74.95 -49.99,-99.97 -99.98,-99.97l-576.18 0c-49.99,0 -99.92,25.02 -99.92,99.97zm199.83 274.79l-299.8 0c-174.87,0 -299.81,-124.88 -299.81,-274.79 0,-174.92 124.94,-299.8 299.81,-299.8l299.8 0c51.58,0 101.51,-49.99 101.51,-99.98 0,-49.93 -49.93,-99.92 -101.51,-99.92l-299.8 0c-274.79,0 -499.64,224.86 -499.64,499.7 0,249.82 224.85,474.68 499.64,474.68l299.8 0c51.58,0 101.51,-49.99 101.51,-99.92 0,-49.99 -49.93,-99.97 -101.51,-99.97z"/>
  <rect class="fil2" x="42627.41" y="3192.6" width="1975.3" height="2051.22"/>
  <path class="fil3" d="M47750.75 30077.69c341.48,75.91 607.04,341.48 644.96,720.96 0,37.91 38,75.83 113.82,75.83 0,0 0,0 0,0 75.92,0 113.83,-75.83 113.83,-113.83 -75.83,-455.31 -417.31,-834.7 -872.61,-910.62 -38.01,0 -113.83,38.01 -113.83,113.83 0,75.92 37.91,113.83 113.83,113.83zm37.91 265.65c-75.92,-38 -113.83,0 -151.74,75.83 0,38 37.91,113.83 75.82,151.83 113.83,0 227.66,113.82 227.66,227.65 38,37.91 75.91,75.83 113.82,75.83 0,0 38.01,0 38.01,0 37.91,0 75.82,-75.83 75.82,-151.74 -37.91,-189.74 -189.65,-341.48 -379.39,-379.4zm645.05 910.62l-265.66 -38c-75.82,0 -151.74,38 -189.65,75.91l-189.74 189.74c-305.9,-151.83 -571.47,-417.39 -723.3,-720.96l189.75 -227.65c37.91,-37.92 75.91,-113.83 75.91,-189.66l-38 -265.65c-37.91,-113.83 -113.83,-227.66 -227.66,-227.66l-189.65 0c-113.82,0 -227.65,113.83 -227.65,227.66 75.82,986.53 834.7,1747.64 1747.65,1823.56 113.82,0 227.65,-113.83 227.65,-229.99l0 -189.65c0,-113.83 -75.83,-227.65 -189.65,-227.65z"/>
  <rect class="fil2 str1" x="38019.67" y="15425.81" width="1975.3" height="1634.96"/>
  <path class="fil3" d="M39790.86 15425.82l-1567.06 0c-102.06,0 -204.12,102.06 -204.12,204.12l0 1226.72c0,102.06 102.06,204.12 204.12,204.12l1567.06 0c102.06,0 204.12,-102.06 204.12,-204.12l0 -1226.72c0,-102.06 -102.06,-204.12 -204.12,-204.12zm-34.08 442.23l-646.35 408.24c-68.06,33.99 -136.05,33.99 -206.29,0l-646.35 -408.24c0,-33.99 -33.99,-68.07 -33.99,-102.06 0,-68.07 67.98,-102.06 136.05,-68.07l648.52 442.32 646.35 -442.32c68.07,-33.99 136.14,0 136.14,68.07 0,33.99 0,68.07 -34.08,102.06z"/>
  <rect class="fil4" x="22994.17" y="16647.01" width="1975.3" height="2792.74"/>
  <g id="_2245022714224">
   <path class="fil0" d="M55042.33 11960.7c-552.64,0 -999.96,447.39 -999.96,975.34 0,736.82 999.96,1817.4 999.96,1817.4 0,0 975.34,-1080.58 975.34,-1817.4 0,-527.95 -422.71,-975.34 -975.34,-975.34zm0 1343.78c-263.14,0 -447.33,-289.49 -315.79,-526.34 78.94,-105.24 184.25,-184.19 315.79,-184.19 263.2,0 447.39,289.44 289.49,526.28 -52.65,105.3 -157.89,184.25 -289.49,184.25z"/>
   <path class="fil0 str2" d="M55042.33 11960.7c-552.64,0 -999.96,447.39 -999.96,975.34 0,736.82 999.96,1817.4 999.96,1817.4 0,0 975.34,-1080.58 975.34,-1817.4 0,-527.95 -422.71,-975.34 -975.34,-975.34zm0 1343.78c-263.14,0 -447.33,-289.49 -315.79,-526.34 78.94,-105.24 184.25,-184.19 315.79,-184.19 263.2,0 447.39,289.44 289.49,526.28 -52.65,105.3 -157.89,184.25 -289.49,184.25z"/>
  </g>
  <rect class="fil5" x="-19938.91" y="14688.43" width="1975.3" height="1973.84"/>
  <path class="fil3" d="M7902.65 -5397.23c-127.67,0 -203.33,75.66 -203.33,201.72 0,100.93 75.66,201.79 203.33,201.79 100.92,0 176.58,-100.86 176.58,-201.79 0,-126.06 -75.66,-201.72 -176.58,-201.72zm-505.97 -1390.3l100.86 0 354.71 758.21 -127.73 226.98c-75.66,151.32 25.26,302.64 178.13,302.64l1084.51 0c50.4,0 75.66,-50.46 75.66,-100.86 0,-50.46 -25.26,-100.92 -75.66,-100.92l-1084.51 0 100.92 -201.72 731.35 0c75.66,0 151.32,-25.26 176.58,-100.92l353.04 -630.48c25.26,-75.66 -25.2,-152.93 -100.86,-152.93l-1439.16 0 -75.66 -126.12c-25.2,-50.46 -50.4,-75.66 -100.86,-75.66l-151.32 0c-50.46,0 -100.86,50.46 -100.86,100.86 0,75.66 50.4,100.92 100.86,100.92zm1489.56 1390.3c-126.06,0 -201.72,75.66 -201.72,201.72 0,100.93 75.66,201.79 201.72,201.79 100.92,0 176.58,-100.86 176.58,-201.79 0,-126.06 -75.66,-201.72 -176.58,-201.72z"/>
  <rect class="fil6" x="30325.78" y="19602.43" width="1975.32" height="2124.66"/>
  <path class="fil3" d="M25169.17 14332.78c64.29,0 96.39,-32.03 96.39,-96.39l0 -192.78 192.79 0c64.28,0 128.49,-64.14 128.49,-96.4 0,-66.26 -64.21,-98.36 -128.49,-98.36l-192.79 0 0 -224.89c0,-32.18 -32.1,-96.39 -96.39,-96.39 -64.29,0 -96.39,64.21 -96.39,96.39l0 224.89 -192.79 0c-64.28,0 -96.39,32.1 -96.39,98.36 0,32.26 32.11,96.4 96.39,96.4l192.79 0 0 192.78c0,64.36 32.1,96.39 96.39,96.39zm-514.07 899.79c-96.39,0 -192.78,96.39 -192.78,224.89 0,96.39 96.39,194.76 192.78,194.76 128.5,0 224.89,-98.37 224.89,-194.76 0,-128.5 -96.39,-224.89 -224.89,-224.89zm1028.14 0c-128.5,0 -224.89,96.39 -224.89,224.89 0,96.39 96.39,194.76 224.89,194.76 96.39,0 192.78,-98.37 192.78,-194.76 0,-128.5 -96.39,-224.89 -192.78,-224.89zm-899.64 -481.96l739.03 0c64.21,0 160.61,-64.29 192.79,-96.39l321.28 -642.64c32.1,-32.11 0,-98.44 -32.11,-130.63 -64.28,-32.1 -96.39,0 -128.57,32.19l-353.39 612.43 -706.92 0 -385.57 -837.4c-32.11,-32.11 -64.21,-64.21 -96.4,-64.21l-162.65 0c-64.21,0 -96.39,64.21 -96.39,96.39 0,64.21 32.18,128.5 96.39,128.5l98.44 0 353.39 741.08 -128.5 257.07c-64.28,128.5 32.11,289.18 160.68,289.18l1124.53 0c32.18,0 96.39,-32.26 96.39,-96.39 0,-64.29 -64.21,-96.4 -96.39,-96.4l-1124.53 0 128.5 -192.78z"/>
  <g id="_2245025643968">
   <path class="fil0 str0" d="M40559.85 -1352.11l0 106.77c82.35,5.96 203.02,34.43 269.73,66.2 38.52,18.35 73.21,44.49 92.66,75.59 28.4,45.41 20.66,85.68 10.82,139.12 -20.06,108.85 -108.78,606.36 -144.87,690.75 -55.12,128.9 -176.35,173.36 -321.78,180.81 -138.01,7.06 -327.69,0.03 -461.74,-37.05 -68.14,-18.85 -68.43,-24.86 -120.85,-44.39 -0.4,0.63 -0.82,0.94 -0.96,2l-16.16 54.7c-15.87,63.28 -27.23,134.67 -27.17,203.1 0.04,42.05 -3.78,59.93 53.68,96.88 95.23,61.23 311.86,96.95 427.78,106.56 55.94,4.64 166.84,15.21 215.32,14.95l451.71 6.07c17.07,-0.02 20.11,-2.69 35.22,-3.14l253.17 -12.53c144.51,-18.89 242.67,-20.42 390.9,-69.64 48.03,-15.95 112.7,-43.86 140.94,-86.37 7.89,-11.88 6.51,-13.45 6.34,-32.03 -0.47,-52.35 0.3,-52.33 -6.23,-109.07 -13.41,-116.58 -38.47,-192.28 -88.31,-292.51 -54.79,-110.18 -123.76,-171.23 -215.9,-244.64l-50.23 -41.28c-24.21,-19.51 -94.16,-86.4 -108.36,-104.2 -6.08,-7.63 -11.84,-12.39 -18.93,-19.44 -53.46,-53.15 -104.46,-136.06 -142.63,-199.82 -10.44,-17.44 -16.27,-34.21 -24.86,-51.89 -60.08,-123.64 -64.95,-249.56 -64.95,-395.59l301.12 0c30.91,-58.42 53.14,-114.19 53.14,-203.7 -14.35,-7.59 -27.99,-17.67 -41.33,-26.57l-298.17 -197.79c13.26,-18.09 82.39,-50.78 147.62,-180.07 78.69,-155.97 53.92,-364.5 -58.61,-502.31 -24.64,-30.17 -52.22,-57.92 -83.91,-81.42 -20.1,-14.91 -81.17,-54.39 -105.79,-59.85l44.88 41.06c42.9,42.48 74.76,87.74 100.91,147.15 66.5,151.12 48.4,326.13 -52.52,456.79 -11.84,15.33 -26.09,33.81 -38.11,44.58 -10.33,9.24 -12.54,14.11 -22.17,22.01l-70.08 54.02c-25,17.56 -75.41,46.15 -107.38,57.23l153.62 180.93c4.24,4.4 36.07,40.75 37.85,45.18 7.98,19.86 -22.45,198.02 -43.73,203.03l-451.68 -0.18z"/>
   <path class="fil0 str0" d="M40559.85 -1352.11l451.68 0.18c21.28,-5.01 51.71,-183.17 43.73,-203.03 -1.78,-4.43 -33.61,-40.78 -37.85,-45.18l-153.62 -180.93c31.97,-11.08 82.38,-39.67 107.38,-57.23l70.08 -54.02c9.63,-7.9 11.84,-12.77 22.17,-22.01 12.02,-10.77 26.27,-29.25 38.11,-44.58 100.92,-130.66 119.02,-305.67 52.52,-456.79 -26.15,-59.41 -58.01,-104.67 -100.91,-147.15l-44.88 -41.06c-43.65,-24.68 -129.31,-35.42 -182.71,-35.42 -202.16,-0.02 -383.14,128.66 -447.66,316.95 -32.77,95.65 -34.54,188.42 -9.96,282.36 14.76,56.38 40.02,105.84 69.68,148.78l35.94 43.77c15.67,15.65 2.44,8.35 27.7,28.39 5.66,4.5 8.21,7.87 13.53,13.04 8.67,8.42 24.4,17.71 30.31,25.78 -4.8,6.55 -10.73,9.23 -18.64,13.83 -58.9,34.22 -169.89,114.51 -234.66,155.02l-86.19 55.51c0,89.51 22.22,145.28 53.14,203.7l301.11 0.09z"/>
   <path class="fil0 str0" d="M39883.82 -174.31c52.42,19.53 52.71,25.54 120.85,44.39 134.05,37.08 323.73,44.11 461.74,37.05 145.43,-7.45 266.66,-51.91 321.78,-180.81 36.09,-84.39 124.81,-581.9 144.87,-690.75 9.84,-53.44 17.58,-93.71 -10.82,-139.12 -19.45,-31.1 -54.14,-57.24 -92.66,-75.59 -66.71,-31.77 -187.38,-60.24 -269.73,-66.2 0,88.95 -24.87,189.3 -56.92,270.18l-35.16 74.07c-7.08,11.63 -11.93,21.91 -19.14,33.99 -7.16,12 -14.38,23.65 -21.59,34.51 -14.84,22.36 -29.06,41.7 -45.99,63.24l-35.96 43.75c-34.8,37.42 -51.75,61.94 -94.34,97.54l-57.39 51.84c-10.49,8.44 -18.86,16.69 -30.37,25.73 -50.83,39.92 -68.99,52.35 -117.55,100.91 -54.02,54.02 -100.35,124.41 -132.07,195.61 -6.59,14.81 -28.25,63.97 -29.55,79.66z"/>
   <path class="fil1" d="M40730.41 -2543.54c-98.59,14 -171.38,90.95 -204.37,165.58 -42.93,97.1 -53.31,234.42 116.13,157.63 43.76,-19.83 79.78,-43.06 113.91,-69.19 51.9,-39.73 43.62,-38.37 74.06,-64.74 22.98,-19.91 93.5,-109.38 48.6,-155.27 -29.55,-30.21 -96.71,-41.34 -148.33,-34.01z"/>
  </g>
  <path class="fil0" d="M-19130.29 15550.55l0 71.51c55.16,4 135.98,23.06 180.66,44.34 25.8,12.29 49.03,29.8 62.06,50.63 19.02,30.41 13.83,57.38 7.24,93.17 -13.43,72.91 -72.85,406.12 -97.02,462.64 -36.92,86.33 -118.12,116.1 -215.52,121.09 -92.43,4.73 -219.47,0.02 -309.25,-24.81 -45.64,-12.63 -45.83,-16.65 -80.94,-29.73 -0.27,0.42 -0.55,0.63 -0.65,1.34l-10.82 36.63c-10.63,42.39 -18.24,90.2 -18.2,136.03 0.03,28.16 -2.53,40.14 35.96,64.89 63.78,41.01 208.87,64.93 286.5,71.37 37.47,3.1 111.75,10.18 144.22,10.01l302.53 4.06c11.44,-0.01 13.47,-1.8 23.59,-2.1l169.57 -8.39c96.78,-12.65 162.53,-13.68 261.8,-46.64 32.17,-10.69 75.49,-29.38 94.4,-57.85 5.29,-7.96 4.36,-9.01 4.25,-21.45 -0.32,-35.06 0.2,-35.05 -4.18,-73.05 -8.98,-78.08 -25.76,-128.78 -59.14,-195.91 -36.7,-73.79 -82.89,-114.68 -144.6,-163.85l-33.65 -27.65c-16.21,-13.06 -63.06,-57.86 -72.57,-69.78 -4.07,-5.12 -7.93,-8.3 -12.68,-13.02 -35.8,-35.6 -69.96,-91.13 -95.53,-133.84 -6.99,-11.68 -10.89,-22.91 -16.65,-34.75 -40.24,-82.81 -43.5,-167.14 -43.5,-264.95l201.68 0c20.7,-39.12 35.59,-76.48 35.59,-136.42 -9.61,-5.09 -18.75,-11.84 -27.68,-17.8l-199.7 -132.47c8.88,-12.12 55.18,-34.01 98.87,-120.6 52.7,-104.46 36.11,-244.13 -39.26,-336.43 -16.5,-20.2 -34.97,-38.79 -56.2,-54.53 -13.46,-9.98 -54.36,-36.43 -70.85,-40.08l30.06 27.5c28.73,28.45 50.07,58.76 67.58,98.55 44.54,101.21 32.42,218.43 -35.17,305.94 -7.93,10.27 -17.48,22.64 -25.53,29.86 -6.91,6.18 -8.39,9.45 -14.84,14.74l-46.94 36.18c-16.75,11.76 -50.51,30.91 -71.92,38.33l102.89 121.18c2.84,2.94 24.16,27.29 25.35,30.25 5.34,13.31 -15.04,132.63 -29.29,135.98l-302.52 -0.12zm0 0l302.52 0.12c14.25,-3.35 34.63,-122.67 29.29,-135.98 -1.19,-2.96 -22.51,-27.31 -25.35,-30.25l-102.89 -121.18c21.41,-7.42 55.17,-26.57 71.92,-38.33l46.94 -36.18c6.45,-5.29 7.93,-8.56 14.84,-14.74 8.05,-7.22 17.6,-19.59 25.53,-29.86 67.59,-87.51 79.71,-204.73 35.17,-305.94 -17.51,-39.79 -38.85,-70.1 -67.58,-98.55l-30.06 -27.5c-29.23,-16.53 -86.61,-23.73 -122.37,-23.73 -135.4,-0.01 -256.61,86.17 -299.83,212.28 -21.94,64.06 -23.13,126.2 -6.67,189.11 9.89,37.76 26.81,70.89 46.67,99.65l24.07 29.32c10.5,10.48 1.64,5.59 18.56,19.01 3.79,3.01 5.49,5.27 9.06,8.73 5.8,5.64 16.34,11.86 20.3,17.27 -3.22,4.39 -7.19,6.18 -12.49,9.26 -39.45,22.92 -113.78,76.7 -157.16,103.83l-57.73 37.18c0,59.94 14.88,97.3 35.59,136.42l201.67 0.06zm-452.77 788.84c35.11,13.08 35.3,17.1 80.94,29.73 89.78,24.83 216.82,29.54 309.25,24.81 97.4,-4.99 178.6,-34.76 215.52,-121.09 24.17,-56.52 83.59,-389.73 97.02,-462.64 6.59,-35.79 11.78,-62.76 -7.24,-93.17 -13.03,-20.83 -36.26,-38.34 -62.06,-50.63 -44.68,-21.28 -125.5,-40.34 -180.66,-44.34 0,59.58 -16.65,126.79 -38.12,180.96l-23.55 49.61c-4.74,7.79 -7.99,14.67 -12.82,22.76 -4.79,8.04 -9.63,15.84 -14.46,23.11 -9.94,14.98 -19.46,27.93 -30.8,42.36l-24.08 29.3c-23.31,25.06 -34.66,41.49 -63.19,65.33l-38.44 34.72c-7.02,5.65 -12.63,11.18 -20.34,17.23 -34.04,26.74 -46.2,35.06 -78.73,67.59 -36.18,36.18 -67.21,83.32 -88.45,131.01 -4.42,9.92 -18.92,42.84 -19.79,53.35zm567.01 -1586.8c-66.03,9.38 -114.79,60.91 -136.88,110.9 -28.75,65.03 -35.71,157 77.78,105.57 29.31,-13.28 53.43,-28.84 76.29,-46.34 34.76,-26.61 29.22,-25.7 49.6,-43.36 15.39,-13.33 62.63,-73.26 32.55,-103.99 -19.79,-20.23 -64.77,-27.69 -99.34,-22.78z"/>
  <path class="fil0" d="M30628.4 11128.01l-73.18 0 -36.55 -36.54c109.73,-109.71 182.84,-292.58 182.84,-475.46 0,-402.2 -329.22,-731.32 -731.54,-731.32 -402.4,0 -731.62,329.12 -731.62,731.32 0,402.29 329.22,731.41 731.62,731.41 182.84,0 365.77,-73.16 475.51,-182.87l36.55 36.63 0 109.7 548.69 550.79 182.93 -148.58 -585.25 -585.08zm-658.43 0c-256.11,0 -512.14,-219.41 -512.14,-512 0,-255.95 256.03,-511.91 512.14,-511.91 292.58,0 512.06,255.96 512.06,511.91 0,292.59 -219.48,512 -512.06,512z"/>
  <g style="clip-path:url(#id0)">
   <image x="-29083.45" y="34505" width="40643.52" height="22861.98" xlink:href="delete_Images\delete_ImgID1.png"/>
  </g>
  <g id="_2245025635040">
   <rect class="fil0" x="-9928.9" y="27132.63" width="6261.98" height="1066.24"/>
   <path class="fil7 str3" d="M-4332.57 27567.91c24.46,0 36.68,-12.19 36.68,-36.68l0 -73.35 73.35 0c24.47,0 48.9,-24.41 48.9,-36.68 0,-25.22 -24.43,-37.43 -48.9,-37.43l-73.35 0 0 -85.57c0,-12.25 -12.22,-36.68 -36.68,-36.68 -24.46,0 -36.68,24.43 -36.68,36.68l0 85.57 -73.36 0c-24.46,0 -36.67,12.21 -36.67,37.43 0,12.27 12.21,36.68 36.67,36.68l73.36 0 0 73.35c0,24.49 12.22,36.68 36.68,36.68zm-195.61 342.38c-36.68,0 -73.35,36.68 -73.35,85.57 0,36.68 36.67,74.11 73.35,74.11 48.9,0 85.57,-37.43 85.57,-74.11 0,-48.89 -36.67,-85.57 -85.57,-85.57zm391.22 0c-48.9,0 -85.58,36.68 -85.58,85.57 0,36.68 36.68,74.11 85.58,74.11 36.67,0 73.35,-37.43 73.35,-74.11 0,-48.89 -36.68,-85.57 -73.35,-85.57zm-342.32 -183.39l281.21 0c24.43,0 61.11,-24.47 73.35,-36.68l122.25 -244.53c12.22,-12.22 0,-37.46 -12.21,-49.71 -24.47,-12.21 -36.68,0 -48.93,12.25l-134.46 233.04 -269 0 -146.71 -318.64c-12.22,-12.22 -24.43,-24.43 -36.68,-24.43l-61.89 0c-24.43,0 -36.68,24.43 -36.68,36.67 0,24.44 12.25,48.9 36.68,48.9l37.46 0 134.47 281.99 -48.9 97.81c-24.46,48.9 12.22,110.04 61.14,110.04l427.89 0c12.25,0 36.68,-12.28 36.68,-36.68 0,-24.46 -24.43,-36.68 -36.68,-36.68l-427.89 0 48.9 -73.35z"/>
  </g>
  <polygon class="fil8 str4" points="-14001.21,787.62 -11586.69,3372.14 -9172.17,5956.66 -14001.21,5956.66 -18830.25,5956.66 -16415.73,3372.14 "/>
  <path class="fil0" d="M27139.48 4497.46l2287.62 0 0 2287.62 -2287.62 0 0 -2287.62zm194.6 1651.83l388.13 0 561.08 -627.91 561.08 627.91 388.13 0 -949.21 -1016.04 -949.21 1016.04z"/>
  <g id="_2245025648192">
   <rect class="fil4" x="25424.78" y="-5565.44" width="4021.7" height="4021.7"/>
   <polygon class="fil0" points="25766.9,-2661.48 26449.24,-2661.48 27435.63,-3765.37 28422.03,-2661.48 29104.37,-2661.48 27435.63,-4447.71 "/>
  </g>
  <line class="fil8 str5" x1="-9290.22" y1="15209.78" x2="-7314.92" y2= "15209.78" />
  <rect class="fil8 str4" x="-9984.82" y="10525.7" width="10000" height="1459"/>
  <rect class="fil8 str4" x="-10408.15" y="2013.7" width="10000" height="1459"/>
  <g id="_2245025645120">
   <rect class="fil0" x="-13460.72" y="20062.19" width="6236.2" height="909.86"/>
   <rect class="fil0" x="-13460.72" y="21881.91" width="6236.2" height="909.86"/>
   <rect class="fil0" x="-13460.72" y="23701.63" width="6236.2" height="909.86"/>
  </g>
  <polygon class="fil0" points="22908.09,3649.47 23590.43,3649.47 24576.82,2545.58 25563.22,3649.47 26245.56,3649.47 24576.82,1863.24 "/>
  <polygon class="fil0" points="22908.09,759.35 23590.43,759.35 24576.82,1863.24 25563.22,759.35 26245.56,759.35 24576.82,2545.58 "/>
  <polygon class="fil0" points="22908.09,759.35 23590.43,759.35 24576.82,1863.24 25563.22,759.35 26245.56,759.35 24576.82,2545.58 "/>
  <rect class="fil0" x="29602.76" y="10563" width="716.88" height="104.59"/>
  <rect class="fil0" transform="matrix(2.40802E-15 -0.0909216 0.0598956 1.58631E-15 29908.9 10973.7)" width="7884.59" height="1746.25"/>
  <path class="fil0" d="M33750.52 18119.5l-73.18 0 -36.55 -36.54c109.73,-109.71 182.84,-292.58 182.84,-475.46 0,-402.2 -329.22,-731.32 -731.54,-731.32 -402.4,0 -731.62,329.12 -731.62,731.32 0,402.29 329.22,731.41 731.62,731.41 182.84,0 365.77,-73.16 475.51,-182.87l36.55 36.63 0 109.7 548.69 550.79 182.93 -148.58 -585.25 -585.08zm-658.43 0c-256.11,0 -512.14,-219.41 -512.14,-512 0,-255.95 256.03,-511.91 512.14,-511.91 292.58,0 512.06,255.96 512.06,511.91 0,292.59 -219.48,512 -512.06,512z"/>
  <path class="fil9" d="M44307.37 7403.75l-73.18 0 -36.55 -36.54c109.73,-109.71 182.84,-292.58 182.84,-475.46 0,-402.2 -329.22,-731.32 -731.54,-731.32 -402.4,0 -731.62,329.12 -731.62,731.32 0,402.29 329.22,731.41 731.62,731.41 182.84,0 365.77,-73.16 475.51,-182.87l36.55 36.63 0 109.7 548.69 550.79 182.93 -148.58 -585.25 -585.08zm-658.43 0c-256.11,0 -512.14,-219.41 -512.14,-512 0,-255.95 256.03,-511.91 512.14,-511.91 292.58,0 512.06,255.96 512.06,511.91 0,292.59 -219.48,512 -512.06,512z"/>
  <g style="clip-path:url(#id1)">
   <image x="23639.22" y="25080.91" width="6265.34" height="1075.26" xlink:href="delete_Images\delete_ImgID2.png"/>
  </g>
  <g style="clip-path:url(#id2)">
   <image x="30823.97" y="30772.48" width="6265.34" height="1075.26" xlink:href="delete_Images\delete_ImgID3.png"/>
  </g>
  <g id="_2245022869712">
   <rect class="fil0" x="21525.38" y="9023.48" width="6261.98" height="1066.24"/>
   <path class="fil10 str1" d="M27121.71 9458.76c24.46,0 36.68,-12.19 36.68,-36.68l0 -73.35 73.35 0c24.47,0 48.9,-24.41 48.9,-36.68 0,-25.22 -24.43,-37.43 -48.9,-37.43l-73.35 0 0 -85.57c0,-12.25 -12.22,-36.68 -36.68,-36.68 -24.46,0 -36.68,24.43 -36.68,36.68l0 85.57 -73.36 0c-24.46,0 -36.67,12.21 -36.67,37.43 0,12.27 12.21,36.68 36.67,36.68l73.36 0 0 73.35c0,24.49 12.22,36.68 36.68,36.68zm-195.61 342.38c-36.68,0 -73.35,36.68 -73.35,85.57 0,36.68 36.67,74.11 73.35,74.11 48.9,0 85.57,-37.43 85.57,-74.11 0,-48.89 -36.67,-85.57 -85.57,-85.57zm391.22 0c-48.9,0 -85.58,36.68 -85.58,85.57 0,36.68 36.68,74.11 85.58,74.11 36.67,0 73.35,-37.43 73.35,-74.11 0,-48.89 -36.68,-85.57 -73.35,-85.57zm-342.32 -183.39l281.21 0c24.43,0 61.11,-24.47 73.35,-36.68l122.25 -244.53c12.22,-12.22 0,-37.46 -12.21,-49.71 -24.47,-12.21 -36.68,0 -48.93,12.25l-134.46 233.04 -269 0 -146.71 -318.64c-12.22,-12.22 -24.43,-24.43 -36.68,-24.43l-61.89 0c-24.43,0 -36.68,24.43 -36.68,36.67 0,24.44 12.25,48.9 36.68,48.9l37.46 0 134.47 281.99 -48.9 97.81c-24.46,48.9 12.22,110.04 61.14,110.04l427.89 0c12.25,0 36.68,-12.28 36.68,-36.68 0,-24.46 -24.43,-36.68 -36.68,-36.68l-427.89 0 48.9 -73.35z"/>
  </g>
  <path id="形状" class="fil3 str6" d="M10694.64 13965.28c76.21,0 143.87,48.76 167.96,121.06l48.18 144.51 290.29 0c48.89,0 88.53,39.64 88.53,88.53 0,48.89 -39.64,88.52 -88.53,88.53l-0.22 6.3 0 0 -76.79 1074.91c-9.92,138.99 -125.56,246.66 -264.89,246.66l-732.59 0c-139.34,0 -254.98,-107.67 -264.91,-246.66l-76.78 -1074.91c-0.15,-2.11 -0.22,-4.22 -0.22,-6.3 -48.89,-0.01 -88.53,-39.64 -88.53,-88.53 0,-48.89 39.64,-88.53 88.53,-88.53l290.29 0 48.18 -144.51c24.09,-72.3 91.75,-121.06 167.96,-121.06l403.54 0zm329.16 442.63l-1061.85 0 76.32 1068.6c3.31,46.33 41.86,82.22 88.31,82.22l732.59 0c46.44,0 84.98,-35.89 88.29,-82.22l76.34 -1068.6zm-707.98 265.57c45.4,0 82.82,34.17 87.93,78.2l0.6 10.33 0 442.62c0,48.89 -39.64,88.52 -88.53,88.52 -45.4,0 -82.82,-34.17 -87.93,-78.2l-0.59 -10.32 0 -442.62c0,-48.9 39.63,-88.53 88.52,-88.53zm354.1 0c48.89,0 88.52,39.63 88.52,88.53l0 442.62c0,48.89 -39.63,88.52 -88.52,88.52 -48.89,0 -88.53,-39.63 -88.53,-88.52l0 -442.62c0,-48.9 39.64,-88.53 88.53,-88.53zm24.72 -531.15l-403.54 0 -29.51 88.52 462.56 0 -29.51 -88.52z"/>
 </g>
</svg>
